<svg xmlns="http://www.w3.org/2000/svg" width="84" height="69" viewBox="0 0 84 69"><rect width="84" height="69" fill="#222238" opacity="0"/><path d="M54.247,14.578C47.372,6.247,41.75,0,41.75,0s-5.622,6.247-12.5,14.578a20.841,20.841,0,0,1,24.994,0Z" fill="#f4c874"/><path d="M54.25,14.581,83.416,0a236.223,236.223,0,0,1-2.084,29.166l-18.75,7.5,16.666,2.916S71.956,51.041,57.372,61.456L50.081,51.041c0,6.909-6.25,17.709-8.334,17.709s-8.334-10.822-8.334-17.709c-.969,1.181-7.291,10.416-7.291,10.416C11.538,51.041,4.247,39.581,4.247,39.581l16.666-2.916-18.75-7.5A236.281,236.281,0,0,1,.078,0L29.244,14.581a20.832,20.832,0,1,0,25.006,0Z" fill="#f4c874"/><path d="M41.75,43.75a12.5,12.5,0,1,0-12.5-12.5A12.5,12.5,0,0,0,41.75,43.75Z" fill="#3fbfdd"/></svg>