<svg xmlns="http://www.w3.org/2000/svg" width="84" height="69" viewBox="0 0 84 69"><rect width="84" height="69" fill="#222238" opacity="0"/><g transform="translate(7 3)"><path d="M35.5,0s3.181,4.775,6.766,11.541a20.961,20.961,0,0,0-13.531,0C32.319,4.775,35.5,0,35.5,0ZM56.334,31.25a20.806,20.806,0,0,0-9.309-17.356c7.612-2.325,23.891-9.725,23.891-9.725,0,5.078-4.125,21.156-14.609,28.125.016-.344.025-.694.025-1.041ZM55.7,36.362A20.873,20.873,0,0,1,42.366,50.925L48,59.375C48,51.041,58.416,41.666,66.75,37.5,66.75,37.5,60.894,36.916,55.7,36.362ZM35.5,52.084a20.9,20.9,0,0,0,6.162-.925C41.05,55.537,37.406,62.5,35.5,62.5s-5.55-6.966-6.163-11.344A20.788,20.788,0,0,0,35.5,52.084Zm-6.913-1.175q-.98-.347-1.913-.781A20.877,20.877,0,0,1,15.284,36.3C10.116,36.866,4.253,37.5,4.253,37.5,12.587,41.669,23,51.044,23,59.378c0,0,3.863-5.991,5.587-8.466ZM14.666,31.25c0,.25,0,.5.012.744C4.2,24.278.081,6.5.081,4.169c0,0,16.278,7.4,23.891,9.725A20.818,20.818,0,0,0,14.663,31.25ZM48,31.25a12.5,12.5,0,1,1-12.5-12.5A12.5,12.5,0,0,1,48,31.25Z" fill="#576bce"/></g></svg>