<svg xmlns="http://www.w3.org/2000/svg" width="84" height="69" viewBox="0 0 84 69"><rect width="84" height="69" fill="#222238" opacity="0"/><g transform="translate(0 2)"><path d="M54.247,14.578C47.372,6.247,41.75,0,41.75,0s-5.622,6.247-12.5,14.578a20.841,20.841,0,0,1,24.994,0Zm0,0L83.416,0a236.223,236.223,0,0,1-2.084,29.166l-18.75,7.5,16.666,2.916S74.037,51.041,57.372,59.372l-7.291-8.334c0,.084-.034.3-.084.625-.347,2.194-1.466,9.284,2.169,12.919H31.331c3.641-3.641,2.509-10.769,2.166-12.938-.05-.312-.084-.525-.084-.6-.969,1.181-7.291,8.334-7.291,8.334C9.456,51.041,4.247,39.584,4.247,39.584l16.666-2.916-18.75-7.5A236.284,236.284,0,0,1,.078,0L29.244,14.584a20.832,20.832,0,1,0,25.006,0Z" fill="#756572"/><path d="M41.75,43.75a12.5,12.5,0,1,0-12.5-12.5A12.5,12.5,0,0,0,41.75,43.75Z" fill="#cd4545"/></g></svg>