<svg xmlns="http://www.w3.org/2000/svg" width="84" height="69" viewBox="0 0 84 69"><rect width="84" height="69" fill="#222238" opacity="0"/><g transform="translate(2 2)"><path d="M52.122,14.578C45.247,6.247,39.625,0,39.625,0S34,6.247,27.128,14.578a20.841,20.841,0,0,1,24.994,0Z" fill="#a5584e"/><path d="M52.125,14.581,79.206,0a236.213,236.213,0,0,1-2.084,29.166l-16.666,7.5,14.584,2.916c-6.25,4.166-15.625,11.459-15.625,19.791L47.956,51.037c0,2.084-6.25,13.541-8.334,13.541s-8.334-11.459-8.334-13.541c-.969,1.181-11.459,8.334-11.459,8.334,0-8.334-9.375-15.625-15.625-19.791l14.584-2.916-16.666-7.5A236.281,236.281,0,0,1,.038,0L27.119,14.581a20.832,20.832,0,1,0,25.006,0Z" fill="#a5584e"/><path d="M39.625,43.75a12.5,12.5,0,1,0-12.5-12.5A12.5,12.5,0,0,0,39.625,43.75Z" fill="#9d48e0"/></g></svg>