<svg xmlns="http://www.w3.org/2000/svg" width="84" height="69" viewBox="0 0 84 69"><rect width="84" height="69" fill="#222238" opacity="0"/><g transform="translate(8 5)"><path d="M33.375.084a91.073,91.073,0,0,0,7.919,9.891,20.925,20.925,0,0,0-15.838,0A91.073,91.073,0,0,0,33.375.084Z" fill="#80989d"/><path d="M54.209,29.25a20.81,20.81,0,0,0-8.6-16.869c6.175-1.072,21.1-6.047,21.1-6.047,0,5.5-3.231,20.706-12.541,24.253.028-.441.041-.887.041-1.337Z" fill="#80989d"/><path d="M43.713,47.341a20.854,20.854,0,0,0,10.3-15.2c3.7.584,8.531,1.275,8.531,1.275S58.994,44.059,43.713,47.341Z" fill="#80989d"/><path d="M33.375,50.084a20.844,20.844,0,0,0,5.569-.753c-1.269,2.441-4.006,7.522-5.569,9.084-1.562-1.562-4.3-6.647-5.569-9.084A20.846,20.846,0,0,0,33.375,50.084Z" fill="#80989d"/><path d="M12.725,32.031A20.833,20.833,0,0,0,23.038,47.341C7.756,44.059,4.209,33.416,4.209,33.416s4.856-.781,8.519-1.388Z" fill="#80989d"/><path d="M12.541,29.25c0,.4.012.806.034,1.206C3.272,26.319.041,8.863.041,6.334c0,0,14.928,4.975,21.1,6.047a20.8,20.8,0,0,0-8.6,16.869Z" fill="#80989d"/><path d="M45.875,29.25a12.5,12.5,0,1,1-12.5-12.5A12.5,12.5,0,0,1,45.875,29.25Z" fill="#80989d"/></g></svg>