<svg xmlns="http://www.w3.org/2000/svg" width="25" height="58.331" viewBox="0 0 25 58.331"><g transform="translate(-29.875 -5.084)"><g transform="translate(29 5)"><path d="M13.375.084a91.073,91.073,0,0,0,7.919,9.891,20.925,20.925,0,0,0-15.838,0A91.091,91.091,0,0,0,13.375.084Z" fill="#5f5f7b"/><path d="M13.375,50.084a20.846,20.846,0,0,0,5.569-.753c-1.269,2.441-4.006,7.522-5.569,9.084-1.562-1.562-4.3-6.647-5.569-9.084A20.845,20.845,0,0,0,13.375,50.084Z" fill="#5f5f7b"/><path d="M25.875,29.25a12.5,12.5,0,1,1-12.5-12.5A12.5,12.5,0,0,1,25.875,29.25Z" fill="#5f5f7b"/></g></g></svg>